<svg width="73" height="86" viewBox="0 0 73 86" fill="none" xmlns="http://www.w3.org/2000/svg">
<g filter="url(#filter0_d_2_580)">
<path fill-rule="evenodd" clip-rule="evenodd" d="M6 0C4.89543 0 4 0.89543 4 2V22C4 23.1046 4.89543 24 6 24H30.8039L36 33L41.1962 24H67C68.1046 24 69 23.1046 69 22V2C69 0.895431 68.1046 0 67 0H6Z" fill="#2B2B2B"/>
<path d="M19.9588 18H21.2756V14.1946H25.6264V18H26.9474V9.27273H25.6264V13.0653H21.2756V9.27273H19.9588V18ZM31.5199 18.1321C33.3651 18.1321 34.571 16.7812 34.571 14.7571C34.571 12.7202 33.3651 11.3693 31.5199 11.3693C29.6747 11.3693 28.4688 12.7202 28.4688 14.7571C28.4688 16.7812 29.6747 18.1321 31.5199 18.1321ZM31.5241 17.0625C30.3182 17.0625 29.7557 16.0099 29.7557 14.7528C29.7557 13.5 30.3182 12.4347 31.5241 12.4347C32.7216 12.4347 33.2841 13.5 33.2841 14.7528C33.2841 16.0099 32.7216 17.0625 31.5241 17.0625ZM35.9933 18H37.2674V13.9645C37.2674 13.0824 37.8853 12.4688 38.6097 12.4688C39.3171 12.4688 39.8072 12.9375 39.8072 13.6491V18H41.0771V13.8281C41.0771 13.0398 41.5586 12.4688 42.3896 12.4688C43.0629 12.4688 43.6168 12.8438 43.6168 13.7301V18H44.891V13.6108C44.891 12.1151 44.0558 11.3693 42.8711 11.3693C41.9293 11.3693 41.2219 11.821 40.9066 12.5199H40.8384C40.5529 11.804 39.9521 11.3693 39.0785 11.3693C38.2134 11.3693 37.57 11.7997 37.2972 12.5199H37.2163V11.4545H35.9933V18ZM49.4197 18.1321C50.8473 18.1321 51.8572 17.429 52.147 16.3636L50.9411 16.1463C50.7109 16.7642 50.157 17.0795 49.4325 17.0795C48.3416 17.0795 47.6087 16.3722 47.5746 15.1108H52.228V14.6591C52.228 12.294 50.8132 11.3693 49.3303 11.3693C47.5064 11.3693 46.3047 12.7585 46.3047 14.7699C46.3047 16.8026 47.4893 18.1321 49.4197 18.1321ZM47.5788 14.1562C47.63 13.2273 48.3033 12.4219 49.3388 12.4219C50.3274 12.4219 50.9751 13.1548 50.9794 14.1562H47.5788Z" fill="white"/>
<circle cx="37" cy="58" r="20" fill="#FFB400"/>
<g clip-path="url(#clip0_2_580)">
<path d="M43 63.9999C43 64.1989 42.921 64.3896 42.7803 64.5303C42.6397 64.6709 42.4489 64.7499 42.25 64.7499H31.75C31.5511 64.7499 31.3603 64.6709 31.2197 64.5303C31.079 64.3896 31 64.1989 31 63.9999V57.2499H28.75L36.4952 50.2089C36.6333 50.0833 36.8133 50.0137 37 50.0137C37.1867 50.0137 37.3667 50.0833 37.5048 50.2089L45.25 57.2499H43V63.9999Z" fill="#2B2B2B"/>
</g>
</g>
<defs>
<filter id="filter0_d_2_580" x="0" y="0" width="73" height="86" filterUnits="userSpaceOnUse" color-interpolation-filters="sRGB">
<feFlood flood-opacity="0" result="BackgroundImageFix"/>
<feColorMatrix in="SourceAlpha" type="matrix" values="0 0 0 0 0 0 0 0 0 0 0 0 0 0 0 0 0 0 127 0" result="hardAlpha"/>
<feOffset dy="4"/>
<feGaussianBlur stdDeviation="2"/>
<feComposite in2="hardAlpha" operator="out"/>
<feColorMatrix type="matrix" values="0 0 0 0 0 0 0 0 0 0 0 0 0 0 0 0 0 0 0.25 0"/>
<feBlend mode="normal" in2="BackgroundImageFix" result="effect1_dropShadow_2_580"/>
<feBlend mode="normal" in="SourceGraphic" in2="effect1_dropShadow_2_580" result="shape"/>
</filter>
<clipPath id="clip0_2_580">
<rect width="18" height="18" fill="white" transform="translate(28 49)"/>
</clipPath>
</defs>
</svg>
